<?xml version="1.0" encoding="utf-8"?>
<svg id="visual" viewBox="0 0 900 600" width="900" height="600" version="1.1" xmlns="http://www.w3.org/2000/svg">
  <g transform="translate(900, 600)">
    <path d="M-243.4 0C-236.4 -19.9 -229.4 -39.8 -224.1 -60C-218.8 -80.3 -215.2 -101 -203.5 -117.5C-191.9 -134 -172.2 -146.2 -153.4 -153.4C-134.7 -160.7 -116.8 -163.1 -103 -178.4C-89.2 -193.7 -79.5 -222.1 -63 -235.1C-46.5 -248.1 -23.3 -245.7 0 -243.4L0 0Z" fill="#4FACF7"/>
  </g>
  <g transform="matrix(0.734844, 0.000464, -0.000503, 0.797344, -32.112885, 170.536972)" style="transform-origin: 121.13px 121.699px;">
    <path d="M 242.612 44.939 C 238.866 77.249 185.336 71.956 184.536 93.756 C 183.736 115.556 211.236 145.356 210.836 166.056 C 210.436 186.756 182.136 198.256 157.736 202.056 C 133.336 205.756 112.936 201.756 99.036 215.856 C 85.136 229.956 77.836 262.156 62.436 277.156 C 47.036 292.156 23.536 289.956 0.036 287.756 L 0.036 44.356 L 242.612 44.939 Z" fill="#4FACF7" style="transform-box: fill-box; transform-origin: 50% 50%;"/>
  </g>
  <g transform="matrix(0.000826, -0.778836, 0.733419, 0.000778, -31.998238, -22.114248)" style="transform-origin: 121.7px 122.487px;">
    <path d="M 195.892 0.037 C 166.792 13.837 137.792 27.637 136.992 49.437 C 136.192 71.237 163.692 101.037 163.292 121.737 C 162.892 142.437 134.592 153.937 110.192 157.737 C 85.792 161.437 65.392 157.437 51.492 171.537 C 37.592 185.637 30.292 217.837 14.892 232.837 C -0.508 247.837 -24.008 245.637 -47.508 243.437 L -47.508 0.037 L 195.892 0.037 Z" fill="#4FACF7" style="transform-box: fill-box; transform-origin: 50% 50%;"/>
  </g>
</svg>