<svg id="visual" viewBox="0 0 900 600" width="900" height="600" xmlns="http://www.w3.org/2000/svg" xmlns:xlink="http://www.w3.org/1999/xlink" version="1.1"><path d="M0 151L13.7 150C27.3 149 54.7 147 82 152C109.3 157 136.7 169 163.8 178C191 187 218 193 245.2 185C272.3 177 299.7 155 327 150C354.3 145 381.7 157 409 156C436.3 155 463.7 141 491 134C518.3 127 545.7 127 573 139C600.3 151 627.7 175 654.8 176C682 177 709 155 736.2 147C763.3 139 790.7 145 818 147C845.3 149 872.7 147 886.3 146L900 145L900 0L886.3 0C872.7 0 845.3 0 818 0C790.7 0 763.3 0 736.2 0C709 0 682 0 654.8 0C627.7 0 600.3 0 573 0C545.7 0 518.3 0 491 0C463.7 0 436.3 0 409 0C381.7 0 354.3 0 327 0C299.7 0 272.3 0 245.2 0C218 0 191 0 163.8 0C136.7 0 109.3 0 82 0C54.7 0 27.3 0 13.7 0L0 0Z" fill="#377ebb"></path><path d="M0 217L13.7 216C27.3 215 54.7 213 82 216C109.3 219 136.7 227 163.8 238C191 249 218 263 245.2 257C272.3 251 299.7 225 327 223C354.3 221 381.7 243 409 247C436.3 251 463.7 237 491 227C518.3 217 545.7 211 573 216C600.3 221 627.7 237 654.8 238C682 239 709 225 736.2 222C763.3 219 790.7 227 818 231C845.3 235 872.7 235 886.3 235L900 235L900 143L886.3 144C872.7 145 845.3 147 818 145C790.7 143 763.3 137 736.2 145C709 153 682 175 654.8 174C627.7 173 600.3 149 573 137C545.7 125 518.3 125 491 132C463.7 139 436.3 153 409 154C381.7 155 354.3 143 327 148C299.7 153 272.3 175 245.2 183C218 191 191 185 163.8 176C136.7 167 109.3 155 82 150C54.7 145 27.3 147 13.7 148L0 149Z" fill="#4190d3"></path><path d="M0 367L13.7 373C27.3 379 54.7 391 82 393C109.3 395 136.7 387 163.8 384C191 381 218 383 245.2 377C272.3 371 299.7 357 327 359C354.3 361 381.7 379 409 389C436.3 399 463.7 401 491 398C518.3 395 545.7 387 573 381C600.3 375 627.7 371 654.8 372C682 373 709 379 736.2 377C763.3 375 790.7 365 818 373C845.3 381 872.7 407 886.3 420L900 433L900 233L886.3 233C872.7 233 845.3 233 818 229C790.7 225 763.3 217 736.2 220C709 223 682 237 654.8 236C627.7 235 600.3 219 573 214C545.7 209 518.3 215 491 225C463.7 235 436.3 249 409 245C381.7 241 354.3 219 327 221C299.7 223 272.3 249 245.2 255C218 261 191 247 163.8 236C136.7 225 109.3 217 82 214C54.7 211 27.3 213 13.7 214L0 215Z" fill="#4aa3eb"></path><path d="M0 409L13.7 416C27.3 423 54.7 437 82 443C109.3 449 136.7 447 163.8 443C191 439 218 433 245.2 429C272.3 425 299.7 423 327 427C354.3 431 381.7 441 409 446C436.3 451 463.7 451 491 449C518.3 447 545.7 443 573 439C600.3 435 627.7 431 654.8 434C682 437 709 447 736.2 447C763.3 447 790.7 437 818 441C845.3 445 872.7 463 886.3 472L900 481L900 431L886.3 418C872.7 405 845.3 379 818 371C790.7 363 763.3 373 736.2 375C709 377 682 371 654.8 370C627.7 369 600.3 373 573 379C545.7 385 518.3 393 491 396C463.7 399 436.3 397 409 387C381.7 377 354.3 359 327 357C299.7 355 272.3 369 245.2 375C218 381 191 379 163.8 382C136.7 385 109.3 393 82 391C54.7 389 27.3 377 13.7 371L0 365Z" fill="#5db1f7"></path><path d="M0 475L13.7 478C27.3 481 54.7 487 82 492C109.3 497 136.7 501 163.8 501C191 501 218 497 245.2 494C272.3 491 299.7 489 327 493C354.3 497 381.7 507 409 512C436.3 517 463.7 517 491 514C518.3 511 545.7 505 573 497C600.3 489 627.7 479 654.8 479C682 479 709 489 736.2 494C763.3 499 790.7 499 818 504C845.3 509 872.7 519 886.3 524L900 529L900 479L886.3 470C872.7 461 845.3 443 818 439C790.7 435 763.3 445 736.2 445C709 445 682 435 654.8 432C627.7 429 600.3 433 573 437C545.7 441 518.3 445 491 447C463.7 449 436.3 449 409 444C381.7 439 354.3 429 327 425C299.7 421 272.3 423 245.2 427C218 431 191 437 163.8 441C136.7 445 109.3 447 82 441C54.7 435 27.3 421 13.7 414L0 407Z" fill="#75bcf8"></path><path d="M0 601L13.7 601C27.3 601 54.7 601 82 601C109.3 601 136.7 601 163.8 601C191 601 218 601 245.2 601C272.3 601 299.7 601 327 601C354.3 601 381.7 601 409 601C436.3 601 463.7 601 491 601C518.3 601 545.7 601 573 601C600.3 601 627.7 601 654.8 601C682 601 709 601 736.2 601C763.3 601 790.7 601 818 601C845.3 601 872.7 601 886.3 601L900 601L900 527L886.3 522C872.7 517 845.3 507 818 502C790.7 497 763.3 497 736.2 492C709 487 682 477 654.8 477C627.7 477 600.3 487 573 495C545.7 503 518.3 509 491 512C463.7 515 436.3 515 409 510C381.7 505 354.3 495 327 491C299.7 487 272.3 489 245.2 492C218 495 191 499 163.8 499C136.7 499 109.3 495 82 490C54.7 485 27.3 479 13.7 476L0 473Z" fill="#8bc6f9"></path></svg>